<svg xmlns="http://www.w3.org/2000/svg" width="1200" height="760" viewBox="0 0 1200 760">
  <rect width="1200" height="760" fill="#f7f7f2"/>
  <text x="60" y="70" font-family="Arial, 'Microsoft JhengHei', sans-serif" font-size="38" font-weight="700" fill="#222">交通警察指揮手勢圖解</text>
  <text x="60" y="112" font-family="Arial, 'Microsoft JhengHei', sans-serif" font-size="20" fill="#555">考題重點：警察指揮與號誌不同時，依警察指揮。</text>
  <g transform="translate(120 170)">
    <circle cx="120" cy="60" r="32" fill="#333"/>
    <line x1="120" y1="95" x2="120" y2="230" stroke="#333" stroke-width="18" stroke-linecap="round"/>
    <line x1="120" y1="125" x2="20" y2="125" stroke="#333" stroke-width="16" stroke-linecap="round"/>
    <line x1="120" y1="125" x2="220" y2="125" stroke="#333" stroke-width="16" stroke-linecap="round"/>
    <line x1="120" y1="230" x2="70" y2="330" stroke="#333" stroke-width="16" stroke-linecap="round"/>
    <line x1="120" y1="230" x2="170" y2="330" stroke="#333" stroke-width="16" stroke-linecap="round"/>
    <rect x="0" y="370" width="260" height="96" rx="14" fill="#fff" stroke="#ddd"/>
    <text x="35" y="410" font-family="Arial, 'Microsoft JhengHei', sans-serif" font-size="24" font-weight="700" fill="#222">雙臂平伸</text>
    <text x="28" y="445" font-family="Arial, 'Microsoft JhengHei', sans-serif" font-size="19" fill="#444">面向與背向車流停止</text>
  </g>
  <g transform="translate(470 170)">
    <circle cx="120" cy="60" r="32" fill="#333"/>
    <line x1="120" y1="95" x2="120" y2="230" stroke="#333" stroke-width="18" stroke-linecap="round"/>
    <line x1="120" y1="125" x2="120" y2="20" stroke="#333" stroke-width="16" stroke-linecap="round"/>
    <line x1="120" y1="125" x2="220" y2="175" stroke="#333" stroke-width="16" stroke-linecap="round"/>
    <line x1="120" y1="230" x2="70" y2="330" stroke="#333" stroke-width="16" stroke-linecap="round"/>
    <line x1="120" y1="230" x2="170" y2="330" stroke="#333" stroke-width="16" stroke-linecap="round"/>
    <rect x="0" y="370" width="260" height="96" rx="14" fill="#fff" stroke="#ddd"/>
    <text x="30" y="410" font-family="Arial, 'Microsoft JhengHei', sans-serif" font-size="24" font-weight="700" fill="#222">單臂高舉</text>
    <text x="25" y="445" font-family="Arial, 'Microsoft JhengHei', sans-serif" font-size="19" fill="#444">各方向車輛準備停止</text>
  </g>
  <g transform="translate(820 170)">
    <circle cx="120" cy="60" r="32" fill="#333"/>
    <line x1="120" y1="95" x2="120" y2="230" stroke="#333" stroke-width="18" stroke-linecap="round"/>
    <line x1="120" y1="125" x2="45" y2="185" stroke="#333" stroke-width="16" stroke-linecap="round"/>
    <line x1="120" y1="125" x2="220" y2="125" stroke="#333" stroke-width="16" stroke-linecap="round"/>
    <path d="M225 125 C260 110 275 90 280 60" stroke="#d71920" stroke-width="10" fill="none" stroke-linecap="round"/>
    <line x1="120" y1="230" x2="70" y2="330" stroke="#333" stroke-width="16" stroke-linecap="round"/>
    <line x1="120" y1="230" x2="170" y2="330" stroke="#333" stroke-width="16" stroke-linecap="round"/>
    <rect x="0" y="370" width="260" height="96" rx="14" fill="#fff" stroke="#ddd"/>
    <text x="30" y="410" font-family="Arial, 'Microsoft JhengHei', sans-serif" font-size="24" font-weight="700" fill="#222">招呼通行</text>
    <text x="25" y="445" font-family="Arial, 'Microsoft JhengHei', sans-serif" font-size="19" fill="#444">依手臂揮動方向通行</text>
  </g>
</svg>
